<?xml version="1.0" encoding="UTF-8" standalone="no"?>
<!DOCTYPE svg PUBLIC "-//W3C//DTD SVG 1.1//EN" "http://www.w3.org/Graphics/SVG/1.1/DTD/svg11.dtd">
<!-- Created with Vectornator (http://vectornator.io/) -->
<svg height="100%" stroke-miterlimit="10" style="fill-rule:nonzero;clip-rule:evenodd;stroke-linecap:round;stroke-linejoin:round;" version="1.1" viewBox="0 0 751.886 137.639" width="100%" xml:space="preserve" xmlns="http://www.w3.org/2000/svg" xmlns:vectornator="http://vectornator.io" xmlns:xlink="http://www.w3.org/1999/xlink">
<defs/>
<path d="M0 0L751.886 0L751.886 137.639L0 137.639L0 0Z" fill="#ffffff" fill-opacity="0" fill-rule="nonzero" opacity="1" stroke="none"/>
<g id="Untitled" vectornator:layerName="Untitled">
<g opacity="1" vectornator:layerName="g">
<path d="M10.2237 3.87011L130.37 3.87011C133.255 3.87011 135.594 6.20888 135.594 9.09388L135.594 129.241C135.594 132.126 133.255 134.464 130.37 134.464L10.2237 134.464C7.33867 134.464 4.99991 132.126 4.99991 129.241L4.99991 9.09388C4.99991 6.20888 7.33867 3.87011 10.2237 3.87011Z" fill="#ff5722" fill-rule="nonzero" opacity="1" stroke="none" vectornator:layerName="rect"/>
<path d="M49.2008 98.551L36.0141 98.551L36.0141 39.7835L49.2008 39.7835L49.2008 63.7759L68.8204 63.7759L88.1883 39.7835L104.58 39.7835L80.3587 69.1329L104.58 98.551L88.1883 98.551L68.7289 74.49L49.2008 74.49L49.2008 98.551Z" fill="#ffffff" fill-rule="nonzero" opacity="1" stroke="none" vectornator:layerName="path"/>
<path d="M182.447 98.1429L168.243 98.1429L194.52 39.7835L214.688 39.7835L240.965 98.1429L226.761 98.1429L221.217 85.8203L187.991 85.8203L182.447 98.1429ZM204.077 49.9862L192.729 75.2095L216.479 75.2095L205.131 49.9862L204.077 49.9862ZM258.106 98.1429L246.271 98.1429L246.271 39.7835L258.106 39.7835L258.106 98.1429ZM306.75 98.1429L288.963 98.1429C284.225 98.1429 280.741 96.9601 278.511 94.5946C276.282 92.2291 275.167 89.1116 275.167 85.2421L275.167 85.2421L275.167 65.4943L263.003 65.4943L263.003 56.1078L275.167 56.1078L275.167 43.2071L287.002 43.2071L287.002 56.1078L304.471 56.1078L304.471 65.4943L287.002 65.4943L287.002 83.7798C287.002 87.0975 288.634 88.7564 291.899 88.7564L291.899 88.7564L306.75 88.7564L306.75 98.1429ZM336.632 79.0412L311.647 79.0412L311.647 69.6547L336.632 69.6547L336.632 79.0412ZM358.67 98.1429L345.611 98.1429L345.611 39.9423L358.67 39.9423L358.67 63.7032L378.089 63.7032L397.27 39.9423L413.515 39.9423L389.516 69.0086L413.515 98.1429L397.27 98.1429L378.01 74.3139L358.67 74.3139L358.67 98.1429ZM473.178 98.1429L429.998 98.1429C425.592 98.1429 422.221 97.0281 419.886 94.7987C417.543 92.5692 416.372 89.3837 416.372 85.2421L416.372 85.2421C416.372 81.1611 417.543 78.0058 419.886 75.7763C422.221 73.5469 425.592 72.4321 429.998 72.4321L429.998 72.4321L461.343 72.4321L461.343 70.4709C461.343 67.1532 459.711 65.4943 456.446 65.4943L456.446 65.4943L421.836 65.4943L421.836 56.1078L459.552 56.1078C464.502 56.1078 468.013 57.2377 470.083 59.4974C472.147 61.7571 473.178 64.9275 473.178 69.0086L473.178 69.0086L473.178 98.1429ZM432.129 88.7564L432.129 88.7564L461.343 88.7564L461.343 81.8186L432.129 81.8186C431.094 81.8186 430.289 82.1322 429.715 82.7595C429.148 83.3868 428.865 84.2143 428.865 85.2421L428.865 85.2421C428.865 86.2775 429.148 87.124 429.715 87.7815C430.289 88.4314 431.094 88.7564 432.129 88.7564ZM493.992 98.1429L482.157 98.1429L482.157 39.7835L493.992 39.7835L493.992 98.1429ZM512.356 98.1429L484.197 98.1429L484.197 88.7564L512.356 88.7564C515.893 88.7564 518.603 87.789 520.485 85.8543C522.359 83.9271 523.296 81.0326 523.296 77.1707L523.296 77.1707C523.296 73.2483 522.359 70.3236 520.485 68.3964C518.603 66.4617 515.893 65.4943 512.356 65.4943L512.356 65.4943L485.013 65.4943L485.013 56.1078L512.356 56.1078C519.649 56.1078 525.337 57.9027 529.418 61.4926C533.499 65.0824 535.539 70.3084 535.539 77.1707L535.539 77.1707C535.539 83.9725 533.499 89.1683 529.418 92.7581C525.337 96.348 519.649 98.1429 512.356 98.1429L512.356 98.1429ZM579.535 98.551L564.435 98.551C557.142 98.551 551.455 96.7409 547.374 93.1209C543.293 89.5008 541.253 84.1841 541.253 77.1707L541.253 77.1707C541.253 70.0968 543.293 64.7499 547.374 61.1298C551.455 57.5098 557.142 55.6997 564.435 55.6997L564.435 55.6997L579.535 55.6997C586.828 55.6997 592.516 57.5098 596.597 61.1298C600.678 64.7499 602.718 70.0968 602.718 77.1707L602.718 77.1707C602.718 84.1841 600.678 89.5008 596.597 93.1209C592.516 96.7409 586.828 98.551 579.535 98.551L579.535 98.551ZM564.435 89.1645L564.435 89.1645L579.535 89.1645C583.072 89.1645 585.778 88.1858 587.652 86.2284C589.534 84.271 590.475 81.2518 590.475 77.1707L590.475 77.1707C590.475 73.0292 589.534 69.9797 587.652 68.0223C585.778 66.0649 583.072 65.0862 579.535 65.0862L579.535 65.0862L564.435 65.0862C560.899 65.0862 558.189 66.0649 556.307 68.0223C554.433 69.9797 553.496 73.0292 553.496 77.1707L553.496 77.1707C553.496 81.2518 554.433 84.271 556.307 86.2284C558.189 88.1858 560.899 89.1645 564.435 89.1645ZM646.703 98.551L631.603 98.551C624.318 98.551 618.634 96.7409 614.553 93.1209C610.472 89.5008 608.432 84.1841 608.432 77.1707L608.432 77.1707C608.432 70.0968 610.472 64.7499 614.553 61.1298C618.634 57.5098 624.318 55.6997 631.603 55.6997L631.603 55.6997L646.703 55.6997C653.996 55.6997 659.683 57.5098 663.764 61.1298C667.845 64.7499 669.886 70.0968 669.886 77.1707L669.886 77.1707C669.886 84.1841 667.845 89.5008 663.764 93.1209C659.683 96.7409 653.996 98.551 646.703 98.551L646.703 98.551ZM631.603 89.1645L631.603 89.1645L646.703 89.1645C650.24 89.1645 652.949 88.1858 654.831 86.2284C656.705 84.271 657.643 81.2518 657.643 77.1707L657.643 77.1707C657.643 73.0292 656.705 69.9797 654.831 68.0223C652.949 66.0649 650.24 65.0862 646.703 65.0862L646.703 65.0862L631.603 65.0862C628.066 65.0862 625.361 66.0649 623.486 68.0223C621.612 69.9797 620.675 73.0292 620.675 77.1707L620.675 77.1707C620.675 81.2518 621.612 84.271 623.486 86.2284C625.361 88.1858 628.066 89.1645 631.603 89.1645ZM689.067 98.1429L677.232 98.1429L677.232 56.1078L731.68 56.1078C736.464 56.1078 739.971 57.2906 742.2 59.6561C744.437 62.0216 745.556 65.1391 745.556 69.0086L745.556 69.0086L745.556 98.1429L733.721 98.1429L733.721 70.4709C733.721 67.1532 732.031 65.4943 728.653 65.4943L728.653 65.4943L717.306 65.4943L717.306 98.1429L705.471 98.1429L705.471 65.4943L689.067 65.4943L689.067 98.1429Z" fill="#ff5722" fill-rule="nonzero" opacity="1" stroke="none" vectornator:layerName="path"/>
</g>
</g>
</svg>
